<svg width="23" height="23" viewBox="0 0 23 23" fill="none" xmlns="http://www.w3.org/2000/svg">
<path d="M12.3943 2.56517C11.0908 2.47026 9.7821 2.6572 8.55724 3.11328C7.33238 3.56936 6.22005 4.28389 5.29588 5.2083C4.37171 6.13271 3.65736 7.24532 3.20139 8.47049C2.74542 9.69567 2.55853 11.0047 2.65342 12.3085C2.98146 17.1301 7.19127 20.7668 12.0207 20.7668H15.3831C15.8843 20.7668 16.2943 20.3566 16.2943 19.8553C16.2943 19.354 15.8843 18.9439 15.3831 18.9439H12.0389C8.6401 18.9439 5.52375 16.7382 4.67632 13.4478C3.31861 8.16146 8.23917 3.23053 13.5242 4.5977C16.8228 5.43623 19.028 8.55338 19.028 11.9531V12.9557C19.028 13.6757 18.381 14.3866 17.6611 14.3866C16.9413 14.3866 16.2943 13.6757 16.2943 12.9557V11.8164C16.2943 9.52863 14.6723 7.46876 12.4125 7.14975C11.6935 7.04281 10.9594 7.10922 10.2713 7.34345C9.58314 7.57767 8.96089 7.97294 8.45635 8.49634C7.9518 9.01974 7.57956 9.65612 7.3706 10.3525C7.16165 11.0489 7.12204 11.7851 7.25506 12.4999C7.41487 13.3612 7.81967 14.1581 8.4209 14.7951C9.02214 15.4321 9.79429 15.882 10.6448 16.091C12.3214 16.483 13.916 15.9452 14.9639 14.8788C15.7749 15.9908 17.3969 16.5741 18.8822 15.9817C20.1032 15.4986 20.8504 14.2499 20.8504 12.9374V11.944C20.8504 7.10418 17.2146 2.89329 12.3943 2.56517ZM11.7382 14.3866C10.2256 14.3866 9.00459 13.1653 9.00459 11.6523C9.00459 10.1393 10.2256 8.91796 11.7382 8.91796C13.2508 8.91796 14.4719 10.1393 14.4719 11.6523C14.4719 13.1653 13.2508 14.3866 11.7382 14.3866Z" fill="#595959"/>
</svg>
