<svg width="23" height="23" viewBox="0 0 23 23" fill="none" xmlns="http://www.w3.org/2000/svg">
<path d="M11.7384 20.7107C15.2611 20.7107 18.1169 17.8542 18.1169 14.3306C18.1169 10.8069 15.2611 7.95044 11.7384 7.95044C8.21562 7.95044 5.35986 10.8069 5.35986 14.3306C5.35986 17.8542 8.21562 20.7107 11.7384 20.7107Z" stroke="#595959" stroke-width="1.82243"/>
<path d="M14.9276 8.86194V5.67188C14.9276 5.25295 14.8451 4.83813 14.6848 4.45109C14.5245 4.06405 14.2896 3.71238 13.9935 3.41616C13.6973 3.11994 13.3457 2.88496 12.9588 2.72464C12.5719 2.56433 12.1571 2.48181 11.7383 2.48181C11.3195 2.48181 10.9048 2.56433 10.5179 2.72464C10.1309 2.88496 9.77933 3.11994 9.48318 3.41616C9.18703 3.71238 8.95211 4.06405 8.79184 4.45109C8.63156 4.83813 8.54907 5.25295 8.54907 5.67188V8.86194" stroke="#595959" stroke-width="1.82243" stroke-linejoin="round"/>
<path d="M11.7383 12.5077V16.1526" stroke="#595959" stroke-width="1.82243" stroke-linecap="round" stroke-linejoin="round"/>
</svg>
