<svg width="23" height="17" viewBox="0 0 23 17" fill="none" xmlns="http://www.w3.org/2000/svg">
<path fill-rule="evenodd" clip-rule="evenodd" d="M11.4949 0.658936C8.27198 0.658936 5.45029 2.58882 3.51138 4.37453C2.52636 5.28172 1.7319 6.18622 1.18375 6.86328C0.909136 7.20239 0.69496 7.4862 0.54821 7.68706C0.4748 7.78755 0.418165 7.86737 0.379189 7.92313C0.359695 7.95101 0.344604 7.97285 0.334033 7.9883L0.321568 8.00654L0.317896 8.012L0 8.51596L0.316711 8.98751L0.317896 8.98925L0.321568 8.99471L0.334033 9.01295C0.344604 9.0284 0.359695 9.05024 0.379189 9.07812C0.418165 9.13389 0.4748 9.2137 0.54821 9.31419C0.69496 9.51505 0.909136 9.79886 1.18375 10.138C1.7319 10.815 2.52636 11.7196 3.51138 12.6267C5.45029 14.4124 8.27198 16.3423 11.4949 16.3423C14.7178 16.3423 17.5394 14.4124 19.4783 12.6267C20.4634 11.7196 21.2579 10.815 21.806 10.138C22.0806 9.79886 22.2947 9.51505 22.4416 9.31419C22.5149 9.2137 22.5716 9.13389 22.6105 9.07812C22.63 9.05024 22.6451 9.0284 22.6557 9.01295L22.6681 8.99471L22.6718 8.98925L22.6734 8.98693L23 8.50063L22.673 8.01374L22.6718 8.012L22.6681 8.00654L22.6557 7.9883C22.6451 7.97285 22.63 7.95101 22.6105 7.92313C22.5716 7.86737 22.5149 7.78755 22.4416 7.68706C22.2947 7.4862 22.0806 7.20239 21.806 6.86328C21.2579 6.18622 20.4634 5.28172 19.4783 4.37453C17.5394 2.58882 14.7178 0.658936 11.4949 0.658936ZM2.53809 9.04153C2.37152 8.83578 2.22972 8.65293 2.11468 8.50063C2.22972 8.34832 2.37152 8.16547 2.53809 7.95972C3.04812 7.32983 3.78483 6.49176 4.69191 5.65633C6.53717 3.95685 8.94327 2.40153 11.4949 2.40153C14.0464 2.40153 16.4526 3.95685 18.2978 5.65633C19.2049 6.49176 19.9416 7.32983 20.4516 7.95972C20.6182 8.16547 20.7599 8.34832 20.8751 8.50063C20.7599 8.65293 20.6182 8.83578 20.4516 9.04153C19.9416 9.67142 19.2049 10.5095 18.2978 11.3449C16.4526 13.0444 14.0464 14.5997 11.4949 14.5997C8.94327 14.5997 6.53717 13.0444 4.69191 11.3449C3.78483 10.5095 3.04812 9.67142 2.53809 9.04153ZM14.1087 8.50063C14.1087 9.94419 12.9385 11.1145 11.4948 11.1145C10.0512 11.1145 8.88095 9.94419 8.88095 8.50063C8.88095 7.05706 10.0512 5.88673 11.4948 5.88673C12.9385 5.88673 14.1087 7.05706 14.1087 8.50063ZM15.8513 8.50063C15.8513 10.9067 13.9009 12.8571 11.4948 12.8571C9.08882 12.8571 7.13835 10.9067 7.13835 8.50063C7.13835 6.0946 9.08882 4.14413 11.4948 4.14413C13.9009 4.14413 15.8513 6.0946 15.8513 8.50063Z" fill="#595959"/>
</svg>
