<svg width="22" height="18" viewBox="0 0 22 18" fill="none" xmlns="http://www.w3.org/2000/svg">
<path fill-rule="evenodd" clip-rule="evenodd" d="M14.9739 10.9778C15.7089 9.36687 15.4137 7.40111 14.0881 6.07542C12.7624 4.7498 10.7967 4.4545 9.18579 5.18956L10.5042 6.50796C11.3498 6.35091 12.2558 6.59943 12.9099 7.2535C13.564 7.9076 13.8126 8.81373 13.6556 9.65932L14.9739 10.9778Z" fill="#595959"/>
<path fill-rule="evenodd" clip-rule="evenodd" d="M4.1839 4.50715C3.89627 4.74344 3.62359 4.98233 3.36706 5.21858C2.42529 6.08594 1.66572 6.95073 1.14164 7.59806C0.879081 7.92228 0.674308 8.19363 0.534002 8.38567C0.463815 8.48175 0.409667 8.55806 0.372403 8.61137C0.353765 8.63803 0.339337 8.65891 0.329229 8.67368L0.317311 8.69112L0.313801 8.69634L0.312668 8.69801L0 9.16351L0.311946 9.6279L0.312668 9.62901L0.313801 9.63068L0.317311 9.6359L0.329229 9.65334C0.339337 9.66811 0.353765 9.68899 0.372403 9.71565C0.409667 9.76896 0.463815 9.84527 0.534002 9.94135C0.674308 10.1334 0.879081 10.4047 1.14164 10.729C1.66572 11.3763 2.42529 12.2411 3.36706 13.1085C5.22084 14.8158 7.91864 16.6609 11 16.6609C12.521 16.6609 13.9486 16.2113 15.2274 15.5506L13.9803 14.3036C13.0314 14.7308 12.0281 14.9948 11 14.9948C8.56044 14.9948 6.26001 13.5078 4.49576 11.8829C3.62852 11.0842 2.92414 10.2829 2.43651 9.68066C2.27726 9.48395 2.14168 9.30913 2.03169 9.16351C2.14168 9.01789 2.27726 8.84307 2.43651 8.64636C2.92414 8.04412 3.62852 7.24285 4.49576 6.44411C4.77378 6.18804 5.06512 5.93541 5.36822 5.69148L4.1839 4.50715ZM16.6319 12.6354C16.935 12.3916 17.2262 12.1389 17.5042 11.8829C18.3715 11.0842 19.0758 10.2829 19.5635 9.68066C19.7227 9.48395 19.8583 9.30913 19.9683 9.16351C19.8583 9.01789 19.7227 8.84307 19.5635 8.64636C19.0758 8.04412 18.3715 7.24285 17.5042 6.44411C15.74 4.81924 13.4396 3.33222 11 3.33222C9.97199 3.33222 8.96868 3.59626 8.01983 4.0234L6.77278 2.77635C8.05149 2.1157 9.47906 1.66614 11 1.66614C14.0813 1.66614 16.7792 3.51128 18.633 5.21858C19.5747 6.08594 20.3343 6.95073 20.8584 7.59806C21.1209 7.92228 21.3257 8.19363 21.466 8.38567C21.5362 8.48175 21.5904 8.55806 21.6276 8.61137C21.6462 8.63803 21.6607 8.65891 21.6708 8.67368L21.6827 8.69112L21.6862 8.69634L21.6873 8.69801L22 9.16351L21.6878 9.62846L21.6862 9.63068L21.6827 9.6359L21.6708 9.65334C21.6607 9.66811 21.6462 9.68899 21.6276 9.71565C21.5904 9.76896 21.5362 9.84527 21.466 9.94135C21.3257 10.1334 21.1209 10.4047 20.8584 10.729C20.3343 11.3763 19.5747 12.2411 18.633 13.1085C18.3765 13.3447 18.1038 13.5835 17.8162 13.8198L16.6319 12.6354Z" fill="#595959"/>
<path fill-rule="evenodd" clip-rule="evenodd" d="M18.4974 17.839L1.83655 1.1781L3.01465 0L19.6755 16.6608L18.4974 17.839Z" fill="#595959"/>
</svg>
